<?xml version="1.0" encoding="utf-8"?>
<!-- Generator: Adobe Illustrator 15.0.0, SVG Export Plug-In . SVG Version: 6.00 Build 0)  -->
<!DOCTYPE svg PUBLIC "-//W3C//DTD SVG 1.1//EN" "http://www.w3.org/Graphics/SVG/1.1/DTD/svg11.dtd">
<svg version="1.1" id="Layer_1" xmlns="http://www.w3.org/2000/svg" xmlns:xlink="http://www.w3.org/1999/xlink" x="0px" y="0px"
	 width="300px" height="1200px" viewBox="0 0 300 1200" enable-background="new 0 0 300 1200" xml:space="preserve">
<rect x="440.349" y="199.044" fill="none" stroke="#70706E" stroke-width="0.7484" stroke-miterlimit="10" width="299.371" height="299.363"/>
<rect x="440.349" y="498.407" fill="none" stroke="#70706E" stroke-width="0.7484" stroke-miterlimit="10" width="299.371" height="299.362"/>
<rect x="440.349" y="797.771" fill="none" stroke="#70706E" stroke-width="0.7484" stroke-miterlimit="10" width="299.371" height="299.362"/>
<rect x="440.349" y="1097.134" fill="none" stroke="#70706E" stroke-width="0.7484" stroke-miterlimit="10" width="299.371" height="299.363"/>
<path fill="#FFFFFF" d="M59.876,196.473c0.03-0.09,0.091-0.211,0.122-0.273l-6.236-4.446c-0.058,0.122-0.09,0.242-0.18,0.394
	c-1.876,4.115-5.993,7.019-10.713,7.019c-6.506,0-11.859-5.446-11.859-12.193c0-6.688,5.354-12.073,11.859-12.133
	c4.873-0.092,9.109,2.874,10.893,7.322c0.063,0.061,0.092,0.151,0.121,0.271c0.061,0.09,6.265-4.387,6.233-4.416
	c-0.09-0.183-0.119-0.242-0.212-0.364c-3.237-6.264-9.682-10.56-17.035-10.56c-10.618,0-19.334,8.956-19.334,19.879
	c0,10.984,8.716,19.879,19.334,19.879C50.192,206.853,56.605,202.646,59.876,196.473z"/>
<polygon fill="#FFFFFF" points="75.459,189.121 95.005,189.121 95.005,206.096 102.509,206.096 102.509,167.456 95.005,167.456 
	95.005,181.345 75.459,181.345 75.459,167.456 68.014,167.456 68.014,206.096 75.459,206.096 "/>
<polygon fill="#FFFFFF" points="237.34,198.409 215.102,198.409 215.102,190.694 233.104,190.694 233.104,182.977 215.102,182.977 
	215.102,175.262 234.588,175.262 234.588,167.456 207.566,167.456 207.566,206.096 237.34,206.096 "/>
<polygon fill="#FFFFFF" points="255.465,198.409 255.465,167.456 247.9,167.456 247.9,206.096 276.465,206.096 276.465,198.409 "/>
<polygon fill="#FFFFFF" points="193.949,167.456 186.445,167.456 186.445,190.694 169.895,167.456 159.939,167.456 159.395,167.456 
	159.395,206.096 166.718,206.096 166.959,206.096 166.959,176.957 187.959,206.096 193.949,206.096 "/>
<path fill="#FFFFFF" d="M140.938,198.409l3.48,7.687h8.956l-17.247-38.64h-10.47l-17.126,38.64h8.955l3.451-7.687H140.938z
	 M130.921,175.262l6.899,15.432h-13.495L130.921,175.262z"/>
<path fill="#FFFFFF" d="M149.999,152.89c23.285,0,42.286-19.002,42.286-42.302c0-23.268-19.001-42.269-42.286-42.269
	c-23.283,0.03-42.284,19.032-42.284,42.269C107.715,133.888,126.716,152.86,149.999,152.89z M149.999,69.741
	c22.498,0,40.862,18.367,40.862,40.847c0,22.513-18.364,40.88-40.862,40.88c-22.526-0.031-40.863-18.368-40.863-40.88
	C109.137,88.108,127.473,69.771,149.999,69.741z"/>
<path fill="#FFFFFF" d="M139.288,132.497c3.937,0,7.627-1.061,10.713-2.845c3.088,1.784,6.776,2.845,10.711,2.845
	c8.049,0,15.103-4.388,18.914-10.894c0-0.032,0.028-0.032,0.028-0.061c0-0.031,0.029-0.031,0.029-0.061l-3.088-1.604l-3.085-1.574
	c-0.028,0.031-0.059,0.061-0.09,0.123c-2.631,4.266-7.354,7.11-12.71,7.11c-1.725,0-3.389-0.303-4.87-0.787
	c3.3-3.783,5.296-8.746,5.296-14.163c0-5.386-1.967-10.348-5.234-14.16c1.482-0.515,3.117-0.786,4.81-0.786
	c5.3,0,10.201,2.844,12.894,7.412c0.028,0.031,0.028,0.062,0.028,0.091l6.201-3.207c-0.028-0.06-0.06-0.121-0.09-0.151
	c-3.782-6.627-10.922-11.075-19.033-11.075c-3.933,0-7.622,1.061-10.71,2.875c-3.086-1.814-6.777-2.875-10.713-2.875
	c-8.105,0-15.248,4.448-19.03,11.075c-0.03,0.03-0.061,0.09-0.092,0.151l6.204,3.207c0-0.029,0-0.059,0.031-0.091
	c2.691-4.568,7.594-7.412,12.887-7.412c1.695,0,3.331,0.271,4.812,0.786c-3.268,3.813-5.235,8.775-5.235,14.16
	c0,5.417,1.997,10.38,5.296,14.163c-1.48,0.485-3.145,0.787-4.873,0.787c-5.354,0-10.074-2.844-12.707-7.11
	c-0.029-0.062-0.061-0.093-0.09-0.123l-3.088,1.574l-3.086,1.604c0,0.031,0.029,0.031,0.029,0.061c0,0.03,0.029,0.03,0.029,0.061
	C124.189,128.109,131.24,132.497,139.288,132.497z M150.001,100.332c2.633,2.693,4.176,6.294,4.176,10.256
	c0,4.025-1.633,7.687-4.176,10.38c-2.541-2.693-4.176-6.354-4.176-10.38C145.825,106.626,147.37,103.025,150.001,100.332z"/>
<path fill="#FFFFFF" d="M77.9,483.392c0.024-0.071,0.075-0.169,0.098-0.218l-4.988-3.556c-0.049,0.097-0.072,0.193-0.146,0.315
	c-1.499,3.292-4.792,5.614-8.568,5.614c-5.204,0-9.487-4.356-9.487-9.755c0-5.35,4.283-9.658,9.487-9.706
	c3.899-0.074,7.287,2.298,8.715,5.857c0.05,0.049,0.073,0.121,0.098,0.217c0.048,0.072,5.009-3.51,4.985-3.533
	c-0.072-0.146-0.097-0.193-0.17-0.291c-2.59-5.011-7.744-8.449-13.628-8.449c-8.496,0-15.468,7.166-15.468,15.904
	c0,8.788,6.972,15.904,15.468,15.904C70.155,491.696,75.287,488.33,77.9,483.392z"/>
<polygon fill="#FFFFFF" points="112.008,491.09 112.008,460.179 106.004,460.179 106.004,471.289 90.367,471.289 90.367,460.179 
	84.413,460.179 84.413,491.09 90.367,491.09 90.367,477.51 106.004,477.51 106.004,491.09 "/>
<polygon fill="#FFFFFF" points="219.871,484.941 202.08,484.941 202.08,478.769 216.482,478.769 216.482,472.596 202.08,472.596 
	202.08,466.423 217.67,466.423 217.67,460.179 196.055,460.179 196.055,491.09 219.871,491.09 "/>
<polygon fill="#FFFFFF" points="234.371,460.179 228.32,460.179 228.32,491.09 251.172,491.09 251.172,484.941 234.371,484.941 "/>
<polygon fill="#FFFFFF" points="179.158,478.769 165.916,460.179 157.953,460.179 157.518,460.179 157.518,491.09 163.375,491.09 
	163.568,491.09 163.568,467.779 180.367,491.09 185.16,491.09 185.16,460.179 179.158,460.179 "/>
<path fill="#FFFFFF" d="M126.75,484.941h15.999l2.785,6.148h7.167l-13.8-30.912h-8.375l-13.701,30.912h7.164L126.75,484.941z
	 M134.737,466.423l5.521,12.345H129.46L134.737,466.423z"/>
<path fill="#FFFFFF" d="M168.883,417.869c0.023,0.025,0.023,0.05,0.023,0.073l4.963-2.565c-0.025-0.049-0.047-0.097-0.072-0.122
	c-3.027-5.301-8.738-8.859-15.229-8.859c-3.145,0-6.098,0.847-8.567,2.3c-2.469-1.452-5.423-2.3-8.569-2.3
	c-6.488,0-12.201,3.559-15.227,8.859c-0.023,0.025-0.047,0.074-0.072,0.122l4.963,2.565c0-0.024,0-0.049,0.023-0.073
	c2.154-3.655,6.076-5.93,10.312-5.93c1.356,0,2.662,0.217,3.85,0.629c-2.616,3.051-4.188,7.02-4.188,11.329
	c0,4.333,1.597,8.303,4.235,11.328c-1.186,0.388-2.516,0.63-3.896,0.63c-4.283,0-8.062-2.275-10.166-5.688
	c-0.024-0.05-0.051-0.074-0.072-0.098l-2.469,1.259l-2.472,1.283c0,0.022,0.024,0.022,0.024,0.048c0,0.022,0.023,0.022,0.023,0.048
	c3.051,5.205,8.691,8.715,15.129,8.715c3.147,0,6.1-0.848,8.57-2.275c2.468,1.429,5.421,2.275,8.57,2.275
	c6.441,0,12.08-3.51,15.131-8.715c0-0.025,0.023-0.025,0.023-0.048c0-0.025,0.023-0.025,0.023-0.048l-2.471-1.283l-2.469-1.259
	c-0.021,0.024-0.047,0.049-0.072,0.098c-2.104,3.413-5.881,5.688-10.168,5.688c-1.377,0-2.709-0.241-3.895-0.63
	c2.637-3.025,4.236-6.995,4.236-11.328c0-4.31-1.574-8.279-4.188-11.329c1.186-0.412,2.494-0.629,3.848-0.629
	C162.807,411.939,166.729,414.214,168.883,417.869z M150,432.199c-2.033-2.154-3.341-5.083-3.341-8.303
	c0-3.171,1.233-6.052,3.341-8.206c2.105,2.153,3.339,5.034,3.339,8.206C153.34,427.116,152.033,430.045,150,432.199z"/>
<polygon fill="#FFFFFF" points="123.857,747.537 112.451,747.537 112.451,739.435 108.107,739.435 108.107,761.979 112.451,761.979 
	112.451,752.074 123.857,752.074 123.857,761.979 128.234,761.979 128.234,739.435 123.857,739.435 "/>
<polygon fill="#FFFFFF" points="193.93,752.993 204.436,752.993 204.436,748.49 193.93,748.49 193.93,743.987 205.301,743.987 
	205.301,739.435 189.533,739.435 189.533,761.979 206.906,761.979 206.906,757.495 193.93,757.495 "/>
<polygon fill="#FFFFFF" points="217.48,739.435 213.068,739.435 213.068,761.979 229.734,761.979 229.734,757.495 217.48,757.495 
	"/>
<polygon fill="#FFFFFF" points="177.211,752.993 167.553,739.435 161.744,739.435 161.428,739.435 161.428,761.979 165.701,761.979 
	165.84,761.979 165.84,744.978 178.092,761.979 181.59,761.979 181.59,739.435 177.211,739.435 "/>
<path fill="#FFFFFF" d="M138.986,757.495h11.67l2.029,4.484h5.227l-10.062-22.545h-6.108l-9.994,22.545h5.227L138.986,757.495z
	 M144.812,743.987l4.025,9.006h-7.875L144.812,743.987z"/>
<path fill="#FFFFFF" d="M99.939,746.8c0.016,0.019,0.016,0.035,0.016,0.052l3.446-1.78c-0.018-0.035-0.032-0.067-0.051-0.085
	c-2.102-3.681-6.065-6.149-10.568-6.149c-2.184,0-4.236,0.588-5.95,1.598c-1.712-1.01-3.763-1.598-5.948-1.598
	c-4.503,0-8.47,2.468-10.569,6.149c-0.017,0.018-0.032,0.05-0.05,0.085l3.444,1.78c0-0.017,0-0.033,0.017-0.052
	c1.496-2.535,4.217-4.115,7.158-4.115c0.943,0,1.848,0.15,2.672,0.437c-1.815,2.116-2.908,4.874-2.908,7.863
	c0,3.009,1.11,5.764,2.941,7.864c-0.822,0.271-1.747,0.437-2.705,0.437c-2.974,0-5.597-1.578-7.057-3.947
	c-0.018-0.034-0.035-0.05-0.051-0.066l-1.714,0.872l-1.714,0.893c0,0.015,0.018,0.015,0.018,0.033c0,0.015,0.015,0.015,0.015,0.031
	c2.119,3.615,6.033,6.052,10.503,6.052c2.185,0,4.236-0.588,5.948-1.58c1.714,0.992,3.765,1.58,5.949,1.58
	c4.468,0,8.384-2.437,10.501-6.052c0-0.016,0.018-0.016,0.018-0.031c0-0.018,0.016-0.018,0.016-0.033l-1.715-0.893l-1.711-0.872
	c-0.015,0.016-0.032,0.032-0.05,0.066c-1.461,2.369-4.083,3.947-7.057,3.947c-0.957,0-1.883-0.166-2.707-0.437
	c1.833-2.1,2.941-4.855,2.941-7.864c0-2.989-1.094-5.747-2.906-7.863c0.822-0.287,1.73-0.437,2.672-0.437
	C95.724,742.685,98.443,744.265,99.939,746.8z M86.833,756.75c-1.41-1.496-2.318-3.528-2.318-5.765c0-2.2,0.857-4.199,2.318-5.695
	c1.463,1.496,2.32,3.495,2.32,5.695C89.152,753.222,88.245,755.254,86.833,756.75z"/>
<path fill="#FFFFFF" d="M163.105,1043.577c0.016,0.019,0.016,0.035,0.016,0.052l3.447-1.78c-0.018-0.035-0.033-0.067-0.051-0.085
	c-2.102-3.681-6.066-6.149-10.568-6.149c-2.184,0-4.236,0.588-5.951,1.598c-1.711-1.01-3.762-1.598-5.947-1.598
	c-4.503,0-8.47,2.468-10.568,6.149c-0.018,0.018-0.032,0.05-0.051,0.085l3.444,1.78c0-0.017,0-0.033,0.017-0.052
	c1.496-2.535,4.217-4.115,7.158-4.115c0.943,0,1.848,0.15,2.672,0.437c-1.814,2.116-2.908,4.874-2.908,7.863
	c0,3.009,1.109,5.764,2.941,7.864c-0.822,0.271-1.748,0.437-2.705,0.437c-2.974,0-5.597-1.578-7.057-3.947
	c-0.018-0.034-0.035-0.05-0.051-0.066l-1.715,0.872l-1.713,0.893c0,0.015,0.018,0.015,0.018,0.033c0,0.015,0.015,0.015,0.015,0.031
	c2.119,3.615,6.033,6.052,10.503,6.052c2.186,0,4.236-0.588,5.947-1.58c1.715,0.992,3.766,1.58,5.949,1.58
	c4.469,0,8.385-2.437,10.502-6.052c0-0.016,0.018-0.016,0.018-0.031c0-0.018,0.016-0.018,0.016-0.033l-1.715-0.893l-1.711-0.872
	c-0.016,0.016-0.033,0.032-0.051,0.066c-1.461,2.369-4.084,3.947-7.057,3.947c-0.957,0-1.883-0.166-2.707-0.437
	c1.832-2.1,2.941-4.855,2.941-7.864c0-2.989-1.096-5.747-2.906-7.863c0.822-0.287,1.729-0.437,2.672-0.437
	C158.891,1039.462,161.609,1041.042,163.105,1043.577z M149.998,1053.527c-1.41-1.496-2.316-3.528-2.316-5.765
	c0-2.2,0.855-4.199,2.316-5.695c1.463,1.496,2.32,3.495,2.32,5.695C152.318,1049.999,151.41,1052.031,149.998,1053.527z"/>
</svg>
