<?xml version="1.0" encoding="iso-8859-1"?>
<!-- Generator: Adobe Illustrator 19.0.0, SVG Export Plug-In . SVG Version: 6.00 Build 0)  -->
<svg version="1.1" id="Capa_1" xmlns="http://www.w3.org/2000/svg" xmlns:xlink="http://www.w3.org/1999/xlink" x="0px" y="0px"
	 viewBox="0 0 511.999 511.999" style="enable-background:new 0 0 511.999 511.999;" xml:space="preserve">
<g>
	<circle style="fill:#FE7A77;" cx="327.044" cy="473.986" r="27.999"/>
	<circle style="fill:#FE7A77;" cx="206.44" cy="353.382" r="27.999"/>
	<circle style="fill:#FE7A77;" cx="473.997" cy="327.034" r="27.999"/>
	<circle style="fill:#FE7A77;" cx="353.403" cy="206.429" r="27.999"/>
	<circle style="fill:#FE7A77;" cx="37.998" cy="38.008" r="27.999"/>
	<circle style="fill:#FE7A77;" cx="272.067" cy="122.884" r="27.999"/>
	<circle style="fill:#FE7A77;" cx="174.411" cy="55.257" r="27.999"/>
</g>
<g>
	
		<rect x="445.673" y="19.674" transform="matrix(-0.7071 0.7071 -0.7071 -0.7071 831.0221 -258.2332)" style="fill:#ECEEFF;" width="46.639" height="46.639"/>
	
		<rect x="19.652" y="445.687" transform="matrix(-0.7071 0.7071 -0.7071 -0.7071 404.9948 770.2588)" style="fill:#ECEEFF;" width="46.639" height="46.639"/>
</g>
<path d="M474.002,289.032c-6.853,0-13.28,1.832-18.837,5.019l-68.787-68.786c3.187-5.557,5.02-11.985,5.02-18.837
	c0-20.952-17.046-37.998-37.998-37.998c-6.672,0-12.943,1.734-18.398,4.767l-30.214-31.033c3.345-5.656,5.273-12.245,5.273-19.279
	c0-20.952-17.046-37.998-37.998-37.998c-9.488,0-18.167,3.504-24.833,9.275l-37.415-25.13c1.668-4.274,2.595-8.917,2.595-13.773
	c0-20.952-17.046-37.998-37.998-37.998c-15.464,0-28.791,9.291-34.716,22.579l-64.124-7.5C72.824,14.067,57.022,0.013,37.998,0.013
	C17.046,0.013,0,17.059,0,38.011s17.046,37.998,37.998,37.998c15.937,0,29.605-9.867,35.239-23.809l63.434,7.419
	c2.172,18.904,18.264,33.636,37.74,33.636c8.854,0,17.003-3.052,23.471-8.149l38.181,25.645c-1.289,3.813-1.999,7.891-1.999,12.133
	c0,20.952,17.046,37.998,37.998,37.998c6.672,0,12.943-1.734,18.398-4.766l30.214,31.033c-3.345,5.656-5.273,12.245-5.273,19.279
	c0,7.48,2.181,14.454,5.928,20.341l-50.536,50.536c-3.905,3.905-3.905,10.237,0,14.142c1.953,1.953,4.512,2.929,7.071,2.929
	s5.118-0.976,7.071-2.929l51.19-51.191c5.187,2.66,11.055,4.171,17.273,4.171c6.853,0,13.28-1.832,18.837-5.019l68.787,68.786
	c-3.187,5.557-5.02,11.985-5.02,18.837c0,20.952,17.046,37.998,37.998,37.998c20.952,0,37.998-17.046,37.998-37.998
	C511.999,306.081,494.955,289.032,474.002,289.032z M37.998,56.01c-9.925,0-17.999-8.075-17.999-17.999s8.075-17.999,17.999-17.999
	s17.999,8.075,17.999,17.999S47.923,56.01,37.998,56.01z M156.412,55.257c0-9.925,8.075-17.999,17.999-17.999
	c9.925,0,17.999,8.075,17.999,17.999s-8.075,17.999-17.999,17.999C164.487,73.256,156.412,65.181,156.412,55.257z M254.064,122.885
	c0-9.925,8.075-17.999,17.999-17.999s17.999,8.075,17.999,17.999s-8.075,17.999-17.999,17.999S254.064,132.809,254.064,122.885z
	 M335.401,206.428c0-9.925,8.075-17.999,17.999-17.999s17.999,8.075,17.999,17.999c0,9.925-8.075,17.999-17.999,17.999
	S335.401,216.353,335.401,206.428z M474.002,345.03c-9.924,0-17.999-8.075-17.999-17.999s8.075-17.999,17.999-17.999
	s17.999,8.075,17.999,17.999S483.926,345.03,474.002,345.03z"/>
<path d="M397.94,388.952l-52.058,52.058c-5.557-3.187-11.985-5.019-18.837-5.019s-13.28,1.832-18.837,5.019l-68.785-68.786
	c3.187-5.557,5.019-11.985,5.019-18.837c0-20.952-17.046-37.998-37.998-37.998s-37.998,17.046-37.998,37.998
	c0,20.952,17.046,37.998,37.998,37.998c6.853,0,13.28-1.832,18.837-5.019l68.785,68.786c-3.187,5.557-5.019,11.985-5.019,18.837
	c0,20.952,17.046,37.998,37.998,37.998c20.952,0,37.998-17.046,37.998-37.998c0-6.852-1.833-13.28-5.019-18.837l52.058-52.058
	c3.905-3.905,3.905-10.237,0-14.142C408.177,385.048,401.847,385.047,397.94,388.952z M188.443,353.387
	c0-9.924,8.075-17.999,17.999-17.999s17.999,8.075,17.999,17.999s-8.075,17.999-17.999,17.999S188.443,363.312,188.443,353.387z
	 M327.044,491.988c-9.924,0-17.999-8.075-17.999-17.999s8.075-17.999,17.999-17.999s17.999,8.075,17.999,17.999
	S336.968,491.988,327.044,491.988z"/>
<path d="M421.377,365.515c-3.963,3.847-4.058,10.177-0.211,14.14c1.961,2.021,4.567,3.035,7.177,3.035
	c2.509,0,5.021-0.939,6.964-2.824l0.017-0.016c3.963-3.847,4.049-10.169,0.203-14.131
	C431.68,361.755,425.341,361.668,421.377,365.515z"/>
<path d="M262.367,314.017c1.86-1.86,2.93-4.44,2.93-7.07c0-2.64-1.069-5.21-2.93-7.07c-1.86-1.87-4.44-2.93-7.07-2.93
	c-2.63,0-5.21,1.06-7.069,2.93c-1.87,1.86-2.931,4.43-2.931,7.07c0,2.63,1.061,5.21,2.931,7.07c1.859,1.86,4.439,2.93,7.069,2.93
	C257.927,316.947,260.507,315.877,262.367,314.017z"/>
<path d="M461.924,83.04c1.876,1.875,4.419,2.929,7.071,2.929s5.195-1.054,7.071-2.929l32.979-32.979
	c1.875-1.875,2.929-4.419,2.929-7.071s-1.054-5.196-2.929-7.071L476.067,2.94c-1.876-1.875-4.419-2.929-7.071-2.929
	s-5.195,1.054-7.071,2.929L428.947,35.92c-3.905,3.905-3.905,10.236,0,14.141L461.924,83.04z M468.996,24.153l18.838,18.838
	L468.996,61.83l-18.838-18.838L468.996,24.153z"/>
<path d="M50.051,428.959c-1.876-1.875-4.419-2.929-7.071-2.929s-5.195,1.054-7.071,2.929l-32.98,32.978
	C1.054,463.813,0,466.356,0,469.009s1.054,5.196,2.929,7.071l32.979,32.979c1.876,1.875,4.419,2.929,7.071,2.929
	s5.195-1.054,7.071-2.929l32.978-32.979c3.905-3.905,3.905-10.237,0-14.141L50.051,428.959z M42.979,487.847l-18.838-18.838
	l18.838-18.838l18.838,18.838L42.979,487.847z"/>
<path d="M147.66,246.127H133.66v-14.386c0-5.523-4.478-10-10-10c-5.522,0-10,4.477-10,10v14.386H99.662c-5.522,0-10,4.477-10,10
	s4.478,10,10,10h13.999v14.386c0,5.523,4.478,10,10,10c5.522,0,10-4.477,10-10v-14.386h13.999c5.522,0,10-4.477,10-10
	S153.182,246.127,147.66,246.127z"/>
<path d="M473.907,158.934c-1.86,1.86-2.93,4.44-2.93,7.07s1.069,5.21,2.93,7.07s4.44,2.93,7.07,2.93c2.63,0,5.21-1.07,7.069-2.93
	c1.86-1.86,2.931-4.44,2.931-7.07s-1.07-5.21-2.931-7.07c-1.859-1.86-4.439-2.93-7.069-2.93
	C478.347,156.004,475.767,157.075,473.907,158.934z"/>
<path d="M10,176.004c2.63,0,5.21-1.07,7.069-2.93c1.86-1.86,2.931-4.44,2.931-7.07s-1.07-5.21-2.931-7.07
	c-1.859-1.86-4.439-2.93-7.069-2.93s-5.21,1.07-7.07,2.93c-1.86,1.86-2.93,4.44-2.93,7.07s1.069,5.21,2.93,7.07
	S7.37,176.004,10,176.004z"/>
<path d="M143.663,437.991c-2.63,0-5.21,1.07-7.07,2.93c-1.87,1.86-2.93,4.44-2.93,7.07s1.06,5.21,2.93,7.07
	c1.86,1.86,4.43,2.93,7.07,2.93c2.63,0,5.21-1.07,7.07-2.93c1.859-1.86,2.93-4.44,2.93-7.07s-1.07-5.21-2.93-7.07
	C148.873,439.061,146.293,437.991,143.663,437.991z"/>
<g>
</g>
<g>
</g>
<g>
</g>
<g>
</g>
<g>
</g>
<g>
</g>
<g>
</g>
<g>
</g>
<g>
</g>
<g>
</g>
<g>
</g>
<g>
</g>
<g>
</g>
<g>
</g>
<g>
</g>
</svg>
