<?xml version="1.0" encoding="iso-8859-1"?>
<!-- Generator: Adobe Illustrator 19.0.0, SVG Export Plug-In . SVG Version: 6.00 Build 0)  -->
<svg version="1.1" id="Capa_1" xmlns="http://www.w3.org/2000/svg" xmlns:xlink="http://www.w3.org/1999/xlink" x="0px" y="0px"
	 viewBox="0 0 512 512" style="enable-background:new 0 0 512 512;" xml:space="preserve">
<circle style="fill:#9AA9FF;" cx="87.989" cy="54.093" r="23.997"/>
<g>
	<circle style="fill:#FFE5BB;" cx="452.442" cy="59.492" r="49.494"/>
	<path style="fill:#FFE5BB;" d="M71.657,351.184c-0.425,0.425-0.84,0.855-1.249,1.289C28.876,395.665,10,501.936,10,501.936
		s104.534-20.608,147.732-62.128c0.436-0.411,0.868-0.828,1.295-1.255L71.657,351.184z"/>
</g>
<path style="fill:#FFFFFF;" d="M116.162,395.69l64.137,64.137l120.945-120.945c54.162-54.162,82.311-129.068,77.221-205.495l0,0
	l0.084,0.084l0,0c-76.428-5.089-151.333,23.059-205.495,77.221L52.109,331.637l64.137,64.137L116.162,395.69z"/>
<rect x="108.619" y="288.135" transform="matrix(-0.7071 0.7071 -0.7071 -0.7071 495.1226 552.4697)" style="fill:#ACB8FF;" width="49.043" height="181.285"/>
<g>
	<path style="fill:#FE7A77;" d="M268.789,149.379l93.767,93.767c12.81-34.652,18.413-71.978,15.913-109.681
		C340.767,130.966,303.44,136.569,268.789,149.379z"/>
	<path style="fill:#FE7A77;" d="M201.34,480.868l21.069,21.068l39.73-39.73c17.792-17.792,27.039-42.398,25.367-67.504l0,0
		l0.028,0.028l0,0c-25.106-1.672-49.712,7.575-67.504,25.367l-39.73,39.73l21.068,21.068L201.34,480.868z"/>
	<path style="fill:#FE7A77;" d="M31.04,310.568l21.068,21.068l39.73-39.73c17.792-17.792,27.039-42.398,25.367-67.504l0,0
		l0.028,0.028l0,0c-25.106-1.672-49.712,7.575-67.504,25.367l-39.73,39.73l21.068,21.068L31.04,310.568z"/>
</g>
<circle style="fill:#ECEEFF;" cx="219.342" cy="291.893" r="51.423"/>
<circle style="fill:#C8D0FF;" cx="426.566" cy="426.556" r="68.191"/>
<path d="M87.99,88.09c18.746,0,33.996-15.25,33.996-33.996s-15.25-33.996-33.996-33.996s-33.996,15.25-33.996,33.996
	S69.244,88.09,87.99,88.09z M87.99,40.096c7.719,0,13.998,6.279,13.998,13.998S95.709,68.092,87.99,68.092
	s-13.998-6.279-13.998-13.998S80.271,40.096,87.99,40.096z"/>
<path d="M388.53,134.079c0.171-2.804-0.845-5.614-2.91-7.68l-0.083-0.083c-2.065-2.064-4.872-3.081-7.68-2.91
	c-78.842-4.874-155.989,24.332-211.872,80.215l-39.449,39.448c0.829-6.205,1.069-12.521,0.677-18.871
	c-0.06-2.528-1.073-5.003-2.937-6.866c-1.939-1.939-4.531-2.935-7.167-2.929c-27.727-1.616-54.806,8.678-74.451,28.322l-39.73,39.73
	c-3.905,3.905-3.905,10.236,0,14.141l54.943,54.943C18.484,399.123,0.913,495.914,0.155,500.188
	c-0.577,3.25,0.486,6.574,2.842,8.886c1.887,1.852,4.409,2.862,7.003,2.862c0.643,0,1.291-0.062,1.935-0.188
	c4.201-0.829,99.438-19.971,146.748-59.396l56.657,56.657c1.953,1.952,4.511,2.929,7.07,2.929c2.559,0,5.117-0.977,7.07-2.929
	l39.73-39.73c19.723-19.723,30.022-46.955,28.303-74.778c-0.06-2.528-1.073-5.003-2.937-6.866c-1.917-1.916-4.474-2.929-7.073-2.929
	c-0.031,0-0.063,0-0.094,0c-6.238-0.365-12.443-0.12-18.54,0.693l39.445-39.445C364.199,290.067,393.391,212.917,388.53,134.079z
	 M368.928,143.007c0.877,27.875-2.836,55.425-10.723,81.648l-70.928-70.928C313.506,145.836,341.059,142.124,368.928,143.007z
	 M66.249,331.637l20.149-20.149l114.05,114.049l-20.149,20.149L66.249,331.637z M38.111,303.497L24.14,289.526l32.66-32.66
	c13.553-13.553,31.566-21.505,50.49-22.52c-1.017,18.923-8.969,36.937-22.52,50.49l-32.66,32.66l-13.971-13.971L38.111,303.497z
	 M22.941,488.752c6.342-28.261,22.489-89.689,49.136-123.007l29.123,29.123l-24.189,24.189c-3.905,3.905-3.905,10.236,0,14.141
	c1.953,1.952,4.511,2.929,7.07,2.929c2.559,0,5.117-0.977,7.07-2.929l24.189-24.189l29.139,29.139
	C111.339,464.889,50.879,481.942,22.941,488.752z M277.59,404.646c-1.017,18.923-8.969,36.937-22.52,50.49l-32.66,32.66
	l-13.971-13.971l-0.027-0.027l-13.971-13.971l32.66-32.66C240.652,413.613,258.666,405.661,277.59,404.646z M214.59,411.395
	L100.54,297.346l79.585-79.585c24.853-24.854,54.252-44.011,86.177-56.729l84.599,84.599
	c-12.716,31.927-31.872,61.323-56.727,86.179L214.59,411.395z"/>
<path d="M175.914,248.456c-23.948,23.949-23.948,62.916,0,86.865c11.602,11.602,27.025,17.99,43.432,17.99
	s31.831-6.389,43.432-17.99c23.948-23.949,23.948-62.916,0-86.865C238.83,224.508,199.861,224.508,175.914,248.456z
	 M177.921,291.889c0-11.064,4.309-21.467,12.133-29.291c5.408-5.409,12.051-9.136,19.293-10.923v80.428
	c-7.241-1.787-13.883-5.513-19.293-10.923C182.231,313.356,177.921,302.954,177.921,291.889z M248.637,321.181
	c-5.408,5.409-12.051,9.136-19.293,10.923v-80.428c7.241,1.787,13.883,5.513,19.293,10.923c7.824,7.824,12.133,18.227,12.133,29.291
	C260.77,302.954,256.461,313.356,248.637,321.181z"/>
<path d="M59.432,440.774c-2.63,0-5.209,1.069-7.068,2.93c-1.86,1.86-2.931,4.439-2.931,7.069c0,2.63,1.07,5.209,2.931,7.068
	c1.859,1.87,4.438,2.931,7.068,2.931c2.63,0,5.209-1.061,7.069-2.931c1.86-1.859,2.93-4.438,2.93-7.068
	c0-2.63-1.069-5.209-2.93-7.069S62.062,440.774,59.432,440.774z"/>
<path d="M452.443,118.985c32.805,0,59.492-26.688,59.492-59.492S485.247,0,452.443,0s-59.492,26.688-59.492,59.492
	S419.639,118.985,452.443,118.985z M452.443,19.997c21.777,0,39.495,17.718,39.495,39.495s-17.718,39.495-39.495,39.495
	c-21.777,0-39.495-17.718-39.495-39.495S430.665,19.997,452.443,19.997z"/>
<path d="M284.465,59.492c0,5.521,4.477,9.999,9.999,9.999h74.55c5.521,0,9.999-4.477,9.999-9.999s-4.477-9.999-9.999-9.999h-74.55
	C288.941,49.494,284.465,53.971,284.465,59.492z"/>
<path d="M248.898,52.423c-1.86,1.86-2.93,4.439-2.93,7.069c0,2.63,1.069,5.209,2.93,7.068c1.86,1.86,4.439,2.931,7.069,2.931
	s5.209-1.07,7.068-2.931c1.86-1.859,2.931-4.438,2.931-7.068c0-2.63-1.07-5.209-2.931-7.069c-1.859-1.86-4.438-2.93-7.068-2.93
	S250.759,50.563,248.898,52.423z"/>
<path d="M232.434,19.997h89.085c5.521,0,9.999-4.477,9.999-9.999S327.04,0,321.519,0h-89.085c-5.521,0-9.999,4.477-9.999,9.999
	S226.912,19.997,232.434,19.997z"/>
<path d="M505.207,347.915c-7.038-7.04-21.7-12.115-51.578,3.671c-0.582,0.308-1.119,0.668-1.613,1.066
	c-7.986-2.759-16.544-4.277-25.455-4.277c-43.112,0-78.186,35.075-78.186,78.186c0,9.075,1.571,17.787,4.427,25.898
	c-0.783,0.749-1.463,1.631-1.986,2.649c-14.867,28.939-9.784,43.219-2.902,50.1c4.699,4.699,10.856,6.795,18.013,6.794
	c10.247-0.001,22.539-4.308,35.505-11.421c7.893,2.687,16.339,4.166,25.129,4.166c43.112,0,78.186-35.075,78.186-78.186
	c0-8.788-1.479-17.232-4.165-25.124C512.662,379.415,516.636,359.344,505.207,347.915z M491.066,362.055
	c1.212,1.212,1.755,6.817-2.246,17.281c-4.308-5.666-9.37-10.728-15.036-15.036C484.202,360.307,489.818,360.803,491.066,362.055z
	 M426.561,368.371c22.46,0,41.975,12.799,51.67,31.479c-8.748,13.96-20.889,28.92-35.175,43.206
	c-14.285,14.285-29.246,26.427-43.206,35.175c-18.68-9.696-31.479-29.21-31.479-51.67
	C368.372,394.474,394.475,368.371,426.561,368.371z M362.055,491.066c-1.226-1.226-1.746-6.837,2.248-17.278
	c4.307,5.665,9.368,10.725,15.032,15.032C368.872,492.818,363.266,492.276,362.055,491.066z M484.749,426.56
	c0,32.086-26.103,58.189-58.189,58.189c-0.303,0-0.602-0.018-0.904-0.023c10.869-8.177,21.632-17.621,31.541-27.529
	c9.907-9.908,19.354-20.668,27.529-31.535C484.731,425.962,484.749,426.259,484.749,426.56z"/>
<path d="M436.57,245.969c-5.521,0-9.999,4.477-9.999,9.999s4.477,9.999,9.999,9.999h65.367c5.521,0,9.999-4.477,9.999-9.999
	s-4.477-9.999-9.999-9.999H436.57z"/>
<path d="M89.614,127.984c0,5.521,4.477,9.999,9.999,9.999h65.367c5.521,0,9.999-4.477,9.999-9.999s-4.477-9.999-9.999-9.999H99.613
	C94.091,117.985,89.614,122.462,89.614,127.984z"/>
<path d="M31.015,137.982h32.684c5.521,0,9.999-4.477,9.999-9.999s-4.477-9.999-9.999-9.999H31.015c-5.521,0-9.999,4.477-9.999,9.999
	S25.494,137.982,31.015,137.982z"/>
<path style="fill:#FE7A77;" d="M378.55,133.47l-0.084-0.084l0,0c0.002,0.027,0.002,0.053,0.004,0.08
	C378.497,133.467,378.523,133.468,378.55,133.47L378.55,133.47z"/>
<g>
</g>
<g>
</g>
<g>
</g>
<g>
</g>
<g>
</g>
<g>
</g>
<g>
</g>
<g>
</g>
<g>
</g>
<g>
</g>
<g>
</g>
<g>
</g>
<g>
</g>
<g>
</g>
<g>
</g>
</svg>
