<?xml version="1.0" encoding="iso-8859-1"?>
<!-- Generator: Adobe Illustrator 19.0.0, SVG Export Plug-In . SVG Version: 6.00 Build 0)  -->
<svg version="1.1" id="Capa_1" xmlns="http://www.w3.org/2000/svg" xmlns:xlink="http://www.w3.org/1999/xlink" x="0px" y="0px"
	 viewBox="0 0 512.003 512.003" style="enable-background:new 0 0 512.003 512.003;" xml:space="preserve">
<polygon style="fill:#FFCB79;" points="108.501,314.644 138.94,376.318 139.132,376.346 207.001,386.208 157.751,434.215 
	169.378,502.002 108.501,469.997 47.625,502.002 59.251,434.215 10.001,386.208 78.063,376.318 "/>
<path d="M169.377,512.002c-1.592,0-3.189-0.38-4.652-1.148l-56.224-29.559l-56.223,29.559c-3.369,1.77-7.451,1.477-10.531-0.762
	c-3.08-2.237-4.622-6.028-3.978-9.78l10.738-62.605L3.021,393.369c-2.726-2.657-3.707-6.631-2.531-10.251s4.306-6.259,8.073-6.807
	l62.859-9.133l28.111-56.961c1.685-3.413,5.161-5.574,8.967-5.574s7.283,2.161,8.967,5.574l28.111,56.961l62.859,9.133
	c3.767,0.548,6.896,3.187,8.073,6.807s0.195,7.594-2.531,10.251l-45.485,44.337l10.738,62.605c0.644,3.752-0.898,7.543-3.978,9.78
	C173.514,511.357,171.45,512.002,169.377,512.002z M108.501,459.997c1.599,0,3.197,0.383,4.653,1.148l42.942,22.576l-8.201-47.816
	c-0.557-3.244,0.519-6.554,2.876-8.852l34.74-33.863l-48.029-6.979c-3.25-0.479-6.057-2.522-7.511-5.468l-21.47-43.504
	l-21.47,43.505c-1.457,2.951-4.272,4.997-7.529,5.471l-48.01,6.976l34.74,33.863c2.357,2.298,3.433,5.607,2.876,8.852l-8.201,47.816
	l42.942-22.576C105.305,460.38,106.903,459.997,108.501,459.997z"/>
<path d="M172.075,344.078c-1.708,0-3.44-0.438-5.022-1.36c-4.773-2.779-6.389-8.9-3.61-13.674
	c35.489-60.948,78.275-117.623,127.169-168.45c48.817-50.748,103.695-95.637,163.108-133.421c4.66-2.963,10.841-1.589,13.804,3.072
	c2.964,4.66,1.588,10.841-3.072,13.805c-116.274,73.944-214.386,175.975-283.727,295.059
	C178.869,342.298,175.518,344.078,172.075,344.078z"/>
<path d="M501.902,20.068c-3.489,0-6.877-1.828-8.716-5.083c-2.717-4.808-1.021-10.908,3.787-13.625l0.109-0.062
	c4.808-2.719,10.909-1.022,13.626,3.787c2.717,4.808,1.021,10.908-3.787,13.625l-0.109,0.062
	C505.258,19.651,503.568,20.068,501.902,20.068z"/>
<path d="M143.662,273.365c-1.373,0-2.767-0.284-4.1-0.885c-5.036-2.268-7.28-8.188-5.012-13.224l8.188-18.184
	c42.81-95.071,110.028-177.715,194.386-238.995c4.469-3.245,10.723-2.255,13.968,2.214c3.246,4.468,2.255,10.722-2.213,13.968
	c-81.546,59.236-146.522,139.124-187.905,231.024l-8.188,18.184C151.119,271.171,147.476,273.365,143.662,273.365z"/>
<path d="M229.497,359.929c-2.286,0-4.582-0.778-6.462-2.372c-4.212-3.572-4.732-9.882-1.161-14.095l0.171-0.202
	c3.571-4.213,9.881-4.733,14.094-1.161s4.732,9.882,1.161,14.095l-0.171,0.202C235.151,358.729,232.333,359.929,229.497,359.929z"/>
<path d="M253.768,332.429c-2.415,0-4.836-0.869-6.756-2.63c-4.07-3.732-4.344-10.059-0.611-14.129
	c67.384-73.483,145.375-135.946,231.807-185.655l18.809-10.817c4.787-2.753,10.901-1.104,13.654,3.684
	c2.753,4.787,1.104,10.9-3.683,13.654l-18.809,10.817c-84.653,48.686-161.04,109.863-227.038,181.835
	C259.168,331.338,256.472,332.429,253.768,332.429z"/>
<g>
</g>
<g>
</g>
<g>
</g>
<g>
</g>
<g>
</g>
<g>
</g>
<g>
</g>
<g>
</g>
<g>
</g>
<g>
</g>
<g>
</g>
<g>
</g>
<g>
</g>
<g>
</g>
<g>
</g>
</svg>
