<?xml version="1.0" encoding="iso-8859-1"?>
<!-- Generator: Adobe Illustrator 19.0.0, SVG Export Plug-In . SVG Version: 6.00 Build 0)  -->
<svg version="1.1" id="Capa_1" xmlns="http://www.w3.org/2000/svg" xmlns:xlink="http://www.w3.org/1999/xlink" x="0px" y="0px"
	 viewBox="0 0 512 512" style="enable-background:new 0 0 512 512;" xml:space="preserve">
<path style="fill:#ECEEFF;" d="M462.947,168.632c-32.968,32.968-86.421,32.968-119.389,0s-32.968-86.421,0-119.389L462.947,168.632z
	"/>
<path style="fill:#AFBAFF;" d="M110.955,449.196L62.81,401.049l26.584-26.584c4.348-4.348,11.398-4.348,15.746,0l32.4,32.4
	c4.348,4.348,4.348,11.398,0,15.746L110.955,449.196z"/>
<path style="fill:#C8D0FF;" d="M147.236,364.77L147.236,364.77c-22.561-22.561-22.561-59.14,0-81.702l95.562-95.562
	c22.561-22.561,59.14-22.561,81.701,0l0,0c22.561,22.561,22.561,59.14,0,81.701l-95.562,95.562
	C206.376,387.331,169.797,387.331,147.236,364.77z"/>
<g>
	<path style="fill:#ECEEFF;" d="M71.309,269.147l-57.507-57.507c-5.07-5.07-5.07-13.289,0-18.359L153.011,54.073
		c5.07-5.07,13.289-5.07,18.359,0l57.507,57.507c5.07,5.07,5.07,13.289,0,18.359L89.668,269.147
		C84.598,274.217,76.379,274.217,71.309,269.147z"/>
	<path style="fill:#ECEEFF;" d="M242.858,440.696l57.507,57.507c5.07,5.07,13.289,5.07,18.359,0l139.209-139.209
		c5.07-5.07,5.07-13.289,0-18.359l-57.507-57.507c-5.07-5.07-13.289-5.07-18.359,0l-139.209,139.21
		C237.789,427.407,237.789,435.627,242.858,440.696z"/>
</g>
<path d="M403.253,203.358c25.221,0,48.932-9.822,66.766-27.655c3.905-3.905,3.905-10.237,0-14.143l-52.716-52.716l7.276-7.276
	c3.905-3.905,3.905-10.237,0-14.142s-10.235-3.905-14.143,0l-7.276,7.276l-52.53-52.531c-3.904-3.904-10.234-3.904-14.143,0
	c-17.834,17.834-27.655,41.545-27.655,66.766c0,21.812,7.351,42.492,20.873,59.22l-5.722,5.722
	c-11.604-8.629-25.61-13.294-40.335-13.294c-18.103,0-35.122,7.049-47.922,19.85l-14.448,14.448l-21.603-21.602l36.272-36.272
	c8.96-8.96,8.96-23.54,0-32.501L178.44,47.002c-4.341-4.341-10.111-6.731-16.25-6.731c-6.14,0-11.91,2.391-16.251,6.731
	L6.732,186.21C2.391,190.55,0,196.322,0,202.46c0,6.139,2.391,11.91,6.731,16.25l57.507,57.507
	c4.341,4.341,10.111,6.731,16.251,6.731c6.139,0,11.909-2.391,16.25-6.731l36.272-36.272l21.602,21.602l-14.448,14.448
	c-12.8,12.801-19.85,29.82-19.85,47.922c0,14.724,4.665,28.731,13.294,40.335l-12.27,12.27l-9.129-9.129
	c-8.24-8.239-21.647-8.24-29.888,0L55.738,393.98c-3.905,3.905-3.905,10.237,0,14.142l48.146,48.146
	c1.876,1.875,4.419,2.929,7.071,2.929s5.195-1.054,7.071-2.929l26.583-26.583c3.992-3.992,6.191-9.299,6.191-14.944
	s-2.199-10.953-6.19-14.944l-9.129-9.129l12.27-12.27c11.603,8.629,25.611,13.294,40.335,13.294c18.103,0,35.121-7.049,47.922-19.85
	l14.448-14.448l21.602,21.602l-36.272,36.272c-8.96,8.961-8.96,23.54,0,32.5l57.508,57.507c4.479,4.48,10.365,6.72,16.25,6.72
	s11.771-2.24,16.251-6.72l139.208-139.209c8.96-8.96,8.96-23.54,0-32.5l-57.507-57.507c-4.341-4.341-10.111-6.731-16.251-6.731
	c-6.139,0-11.909,2.391-16.25,6.731l-36.272,36.272l-21.602-21.602l14.448-14.448c12.801-12.801,19.85-29.82,19.85-47.922
	c0-14.724-4.665-28.731-13.294-40.335l5.701-5.701C360.592,195.949,381.352,203.358,403.253,203.358z M130.468,415.54
	l-19.513,19.513l-34.004-34.003l19.513-19.513c0.443-0.443,1.163-0.442,1.604,0l32.4,32.4c0.22,0.221,0.332,0.49,0.332,0.802
	C130.801,415.049,130.688,415.32,130.468,415.54z M344.026,63.853l104.311,104.312c-12.894,9.857-28.579,15.194-45.084,15.194
	c-19.879,0-38.567-7.741-52.623-21.798c-14.057-14.056-21.798-32.745-21.798-52.624C328.832,92.432,334.169,76.748,344.026,63.853z
	 M133.011,211.661l-23.79-23.791l38.38-38.38l23.791,23.791L133.011,211.661z M109.668,111.558l23.79,23.791l-38.38,38.38
	l-23.79-23.791L109.668,111.558z M221.806,122.867l-36.272,36.272l-23.791-23.791l38.38-38.381l21.683,21.682
	C222.968,119.813,222.968,121.705,221.806,122.867z M160.082,61.144c0.722-0.722,1.545-0.873,2.108-0.873s1.386,0.151,2.107,0.874
	l21.682,21.682l-38.38,38.38l-23.79-23.791L160.082,61.144z M20,202.46c0-0.563,0.151-1.386,0.874-2.108l36.272-36.272
	l23.791,23.791l-38.38,38.38l-21.683-21.683C20.151,203.845,20,203.023,20,202.46z M82.597,262.076
	c-0.722,0.722-1.545,0.873-2.107,0.873c-0.563,0-1.387-0.151-2.108-0.873l0,0L56.7,240.393l38.38-38.38l23.79,23.791L82.597,262.076
	z M147.154,225.803l38.38-38.38l21.603,21.602l-38.38,38.38L147.154,225.803z M338.724,340.615l23.79,23.79l-38.38,38.38
	l-23.79-23.79L338.724,340.615z M362.068,440.717l-23.791-23.791l38.38-38.38l23.791,23.791L362.068,440.717z M249.93,429.409
	l36.272-36.272l23.79,23.79l-38.38,38.38l-21.682-21.682C248.767,432.463,248.768,430.571,249.93,429.409z M311.654,491.132
	c-1.164,1.163-3.056,1.163-4.218,0l-21.682-21.682l38.38-38.38l23.791,23.791L311.654,491.132z M450.861,351.924l-36.271,36.272
	l-23.791-23.791l38.38-38.38l21.682,21.682C452.023,348.868,452.023,350.76,450.861,351.924z M389.139,290.2
	c0.722-0.722,1.545-0.873,2.107-0.873c0.563,0,1.387,0.151,2.108,0.874l21.682,21.682l-38.38,38.38l-23.79-23.79L389.139,290.2z
	 M324.582,326.471l-38.38,38.38L264.6,343.25l38.38-38.38L324.582,326.471z M317.428,262.137l-95.562,95.562
	c-9.022,9.023-21.02,13.992-33.779,13.992c-12.761,0-24.757-4.969-33.779-13.992l0,0c-18.626-18.626-18.626-48.933,0-67.559
	l95.562-95.562c9.022-9.023,21.019-13.992,33.779-13.992s24.757,4.969,33.779,13.992c9.023,9.022,13.992,21.019,13.992,33.779
	S326.451,253.113,317.428,262.137z"/>
<path d="M417.508,66.327c15.533,0,28.17,12.637,28.17,28.17c0,5.523,4.478,10,10,10s10-4.477,10-10
	c0-26.561-21.609-48.17-48.17-48.17c-5.522,0-10,4.477-10,10S411.985,66.327,417.508,66.327z"/>
<path d="M417.508,0.006c-5.522,0-10,4.477-10,10s4.478,10,10,10c41.075,0,74.492,33.417,74.492,74.492c0,5.523,4.478,10,10,10
	s10-4.477,10-10C512,42.395,469.611,0.006,417.508,0.006z"/>
<path d="M253.973,271.221l-50.894,50.893c-3.905,3.905-3.905,10.237,0,14.142c1.953,1.953,4.512,2.929,7.071,2.929
	s5.118-0.977,7.071-2.929l50.894-50.893c3.905-3.905,3.905-10.237,0-14.142C264.211,267.318,257.881,267.316,253.973,271.221z"/>
<path d="M286.49,242.844c-2.631,0-5.21,1.07-7.07,2.93c-1.86,1.86-2.93,4.44-2.93,7.07c0,2.64,1.069,5.21,2.93,7.07
	c1.86,1.86,4.439,2.93,7.07,2.93c2.63,0,5.21-1.07,7.069-2.93c1.86-1.86,2.931-4.44,2.931-7.07s-1.07-5.21-2.931-7.07
	C291.7,243.914,289.12,242.844,286.49,242.844z"/>
<g>
</g>
<g>
</g>
<g>
</g>
<g>
</g>
<g>
</g>
<g>
</g>
<g>
</g>
<g>
</g>
<g>
</g>
<g>
</g>
<g>
</g>
<g>
</g>
<g>
</g>
<g>
</g>
<g>
</g>
</svg>
