<?xml version="1.0" encoding="iso-8859-1"?>
<!-- Generator: Adobe Illustrator 19.0.0, SVG Export Plug-In . SVG Version: 6.00 Build 0)  -->
<svg version="1.1" id="Capa_1" xmlns="http://www.w3.org/2000/svg" xmlns:xlink="http://www.w3.org/1999/xlink" x="0px" y="0px"
	 viewBox="0 0 511.998 511.998" style="enable-background:new 0 0 511.998 511.998;" xml:space="preserve">
<g>
	<path style="fill:#DDE2FF;" d="M328.451,299.507L328.451,299.507c-9.878-2.647-15.741-12.801-13.094-22.679l8.714-32.52
		c2.647-9.878,12.801-15.74,22.679-13.094l0,0c9.878,2.647,15.74,12.801,13.094,22.679l-8.714,32.52
		C348.482,296.292,338.329,302.154,328.451,299.507z"/>
	<path style="fill:#DDE2FF;" d="M212.492,183.548L212.492,183.548c2.647,9.878,12.801,15.741,22.679,13.094l32.52-8.714
		c9.878-2.647,15.74-12.801,13.094-22.679l0,0c-2.647-9.878-12.801-15.74-22.679-13.094l-32.52,8.714
		C215.707,163.516,209.845,173.67,212.492,183.548z"/>
</g>
<g>
	<circle style="fill:#ECEEFF;" cx="372.38" cy="139.62" r="129.62"/>
	<path style="fill:#ECEEFF;" d="M254.391,256.12L254.391,256.12c-7.231-7.231-7.231-18.956,0-26.187l23.807-23.807
		c7.231-7.231,18.956-7.231,26.187,0l0,0c7.231,7.231,7.231,18.956,0,26.187l-23.807,23.807
		C273.347,263.351,261.622,263.351,254.391,256.12z"/>
</g>
<path style="fill:#AFBAFF;" d="M268.705,35.94c-16.942,16.942-28.205,37.409-33.806,59.04l181.764,181.764
	c21.63-5.601,42.097-16.864,59.04-33.806c0.212-0.212,0.415-0.428,0.625-0.641L269.346,35.315
	C269.134,35.524,268.917,35.728,268.705,35.94z"/>
<path d="M289.083,92.106c-2.641,0-5.21,1.06-7.08,2.92c-1.86,1.87-2.92,4.45-2.92,7.08s1.06,5.2,2.92,7.07
	c1.87,1.86,4.45,2.93,7.08,2.93c2.62,0,5.199-1.07,7.069-2.93c1.86-1.87,2.931-4.44,2.931-7.07s-1.07-5.21-2.931-7.08
	C294.282,93.166,291.713,92.106,289.083,92.106z"/>
<path d="M329.352,132.376c-2.63,0-5.21,1.07-7.07,2.93c-1.859,1.86-2.93,4.44-2.93,7.07s1.07,5.21,2.93,7.07s4.44,2.93,7.07,2.93
	s5.21-1.07,7.07-2.93c1.859-1.86,2.93-4.44,2.93-7.07s-1.07-5.21-2.93-7.07S331.982,132.376,329.352,132.376z"/>
<path d="M369.623,172.646c-2.63,0-5.21,1.07-7.07,2.93c-1.86,1.86-2.93,4.44-2.93,7.07s1.069,5.21,2.93,7.07
	c1.86,1.87,4.44,2.93,7.07,2.93s5.21-1.06,7.069-2.93c1.86-1.86,2.931-4.44,2.931-7.07s-1.07-5.21-2.931-7.07
	C374.833,173.716,372.253,172.646,369.623,172.646z"/>
<path d="M409.892,212.926c-2.63,0-5.21,1.06-7.07,2.92c-1.859,1.86-2.93,4.44-2.93,7.07c0,2.64,1.07,5.22,2.93,7.08
	s4.44,2.92,7.07,2.92c2.64,0,5.21-1.06,7.07-2.92c1.87-1.87,2.939-4.44,2.939-7.08c0-2.63-1.069-5.2-2.939-7.07
	C415.102,213.986,412.532,212.926,409.892,212.926z"/>
<path d="M478.509,230.335c21.767-25.389,33.594-57.396,33.488-91.168c-0.116-37.124-14.638-72.025-40.889-98.277
	c-26.252-26.251-61.154-40.773-98.277-40.889c-33.727-0.096-65.771,11.723-91.167,33.49l-5.247-5.247
	c-3.887-3.886-10.181-3.907-14.093-0.049l-0.201,0.195c-0.167,0.161-0.333,0.322-0.497,0.487
	c-17.604,17.606-30.193,39.598-36.408,63.596c-0.888,3.429,0.104,7.073,2.609,9.578l8.087,8.087
	c-2.744,12.729-3.686,25.64-2.881,38.383l-10.036,2.69c-7.358,1.971-13.508,6.689-17.316,13.287
	c-2.073,3.591-3.311,7.506-3.696,11.514L7.415,228.146c-5.335,1.429-8.501,6.913-7.071,12.248c1.197,4.468,5.237,7.414,9.653,7.414
	c0.856,0,1.728-0.111,2.594-0.343l194.598-52.142c5.315,7.423,13.97,11.954,23.197,11.954c2.436,0,4.911-0.315,7.374-0.975
	l10.444-2.799c2.057,3.992,4.314,7.899,6.771,11.705l-7.654,7.654c-8.632,8.632-10.559,21.464-5.789,31.976L68.899,427.469
	c-3.905,3.905-3.905,10.237,0,14.142c1.953,1.953,4.512,2.929,7.071,2.929s5.119-0.977,7.071-2.929L255.675,268.98
	c3.741,1.698,7.775,2.551,11.81,2.551c7.303,0,14.605-2.78,20.165-8.339l7.343-7.343c4.374,2.921,8.882,5.573,13.501,7.958
	l-2.795,10.432c-1.972,7.358-0.96,15.043,2.849,21.64c2.073,3.591,4.845,6.621,8.123,8.958l-52.135,194.57
	c-1.43,5.335,1.736,10.818,7.071,12.248c0.867,0.232,1.737,0.343,2.594,0.343c4.415,0,8.456-2.947,9.653-7.414l52.141-194.592
	c11.485-1.127,21.635-9.202,24.794-20.99l2.685-10.021c2.891,0.181,5.788,0.297,8.694,0.297c9.884,0,19.833-1.065,29.693-3.195
	l7.73,7.73c1.899,1.899,4.453,2.929,7.071,2.929c0.836,0,1.678-0.104,2.507-0.319c24.002-6.215,45.996-18.808,63.612-36.424
	c0.152-0.152,0.301-0.306,0.45-0.46l0.207-0.213c3.867-3.912,3.849-10.212-0.04-14.102L478.509,230.335z M456.967,55.032
	c43.924,43.924,46.431,114.194,7.35,161.109L295.857,47.683C342.772,8.602,413.041,11.107,456.967,55.032z M232.583,186.983
	c-4.539,1.213-9.216-1.487-10.432-6.023c-0.589-2.197-0.287-4.492,0.851-6.462s2.974-3.379,5.173-3.968l7.582-2.032
	c1.171,5.556,2.681,11.04,4.526,16.422L232.583,186.983z M261.463,249.049c-3.321-3.321-3.321-8.724,0-12.045l23.807-23.807
	c1.66-1.661,3.841-2.491,6.022-2.491s4.361,0.83,6.021,2.491c3.321,3.321,3.321,8.724,0,12.045l-23.807,23.807
	C270.186,252.369,264.783,252.37,261.463,249.049z M341.47,283.825c-1.216,4.537-5.896,7.236-10.432,6.023
	c-2.197-0.589-4.034-1.999-5.172-3.969s-1.439-4.265-0.851-6.463l2.06-7.686c5.382,1.849,10.863,3.366,16.419,4.538L341.47,283.825z
	 M309.46,241.381l1.996-1.996c5.386-5.386,8.353-12.548,8.353-20.165s-2.967-14.779-8.353-20.165
	c-5.387-5.386-12.548-8.353-20.165-8.353c-7.616,0-14.777,2.967-20.164,8.353l-1.633,1.633
	c-13.11-22.041-18.711-47.664-16.131-73.104l131.063,131.063C358.209,261.333,331.934,255.329,309.46,241.381z M419.581,265.519
	L246.124,92.062c4.828-15.55,12.824-29.981,23.46-42.368l4.704,4.704c0.003,0.003,183.308,183.308,183.31,183.31l4.352,4.352
	C449.562,252.694,435.131,260.69,419.581,265.519z"/>
<path d="M450.576,61.423c-3.906-3.905-10.236-3.905-14.143,0c-3.905,3.905-3.905,10.237,0,14.143l0.2,0.2
	c1.954,1.968,4.523,2.952,7.094,2.952c2.548,0,5.098-0.968,7.048-2.906c3.918-3.893,3.938-10.224,0.046-14.142L450.576,61.423z"/>
<path d="M468.277,180.043c4.244,0,8.183-2.724,9.531-6.986c7.605-24.038,6.756-50.2-2.392-73.666
	c-2.006-5.144-7.804-7.692-12.949-5.685c-5.146,2.006-7.691,7.803-5.686,12.949c7.496,19.228,8.191,40.667,1.958,60.368
	c-1.666,5.266,1.252,10.885,6.518,12.551C466.261,179.892,467.277,180.043,468.277,180.043z"/>
<path d="M50.543,449.966c-2.63,0-5.21,1.07-7.07,2.93s-2.93,4.44-2.93,7.07s1.069,5.21,2.93,7.07c1.86,1.86,4.44,2.93,7.07,2.93
	s5.21-1.07,7.069-2.93c1.87-1.86,2.931-4.44,2.931-7.07s-1.061-5.21-2.931-7.07C55.753,451.036,53.173,449.966,50.543,449.966z"/>
<g>
</g>
<g>
</g>
<g>
</g>
<g>
</g>
<g>
</g>
<g>
</g>
<g>
</g>
<g>
</g>
<g>
</g>
<g>
</g>
<g>
</g>
<g>
</g>
<g>
</g>
<g>
</g>
<g>
</g>
</svg>
